<svg width="40" height="40" viewBox="0 0 40 40" fill="none" xmlns="http://www.w3.org/2000/svg">
<path d="M31.4844 8.51563C29.2125 6.2413 26.317 4.69192 23.1644 4.06351C20.0117 3.4351 16.7435 3.7559 13.7732 4.98531C10.8029 6.21473 8.26395 8.29752 6.47761 10.9702C4.69127 13.6429 3.73779 16.7853 3.73779 20C3.73779 23.2147 4.69127 26.3571 6.47761 29.0298C8.26395 31.7025 10.8029 33.7853 13.7732 35.0147C16.7435 36.2441 20.0117 36.5649 23.1644 35.9365C26.317 35.3081 29.2125 33.7587 31.4844 31.4844C32.9934 29.9767 34.1904 28.1864 35.0072 26.2159C35.8239 24.2453 36.2443 22.1331 36.2443 20C36.2443 17.8669 35.8239 15.7547 35.0072 13.7842C34.1904 11.8136 32.9934 10.0233 31.4844 8.51563ZM25.625 23.125C25.625 23.4565 25.4933 23.7745 25.2589 24.0089C25.0245 24.2433 24.7065 24.375 24.375 24.375C24.0435 24.375 23.7255 24.2433 23.4911 24.0089C23.2567 23.7745 23.125 23.4565 23.125 23.125V18.6406L16.5156 25.2656C16.274 25.4923 15.9563 25.6205 15.625 25.625C15.2931 25.6236 14.9743 25.495 14.7344 25.2656C14.4997 25.0286 14.368 24.7086 14.368 24.375C14.368 24.0414 14.4997 23.7214 14.7344 23.4844L21.3594 16.875H16.875C16.5435 16.875 16.2255 16.7433 15.9911 16.5089C15.7567 16.2745 15.625 15.9565 15.625 15.625C15.625 15.2935 15.7567 14.9755 15.9911 14.7411C16.2255 14.5067 16.5435 14.375 16.875 14.375H24.375C24.536 14.3746 24.6954 14.4065 24.8438 14.4688C25.1524 14.5936 25.3994 14.835 25.5313 15.1406C25.5925 15.2948 25.6243 15.4591 25.625 15.625V23.125Z" fill="white"/>
</svg>
