<svg width="93" height="13" viewBox="0 0 93 13" fill="none" xmlns="http://www.w3.org/2000/svg">
<path d="M2.9691 9.346C2.5371 9.346 2.1411 9.244 1.7811 9.04C1.4331 8.824 1.1511 8.542 0.935102 8.194C0.731102 7.834 0.629102 7.438 0.629102 7.006C0.629102 6.346 0.857102 5.788 1.3131 5.332C1.7691 4.876 2.3211 4.648 2.9691 4.648C3.6411 4.648 4.2051 4.876 4.6611 5.332C5.1171 5.788 5.3451 6.346 5.3451 7.006C5.3451 7.666 5.1171 8.224 4.6611 8.68C4.2051 9.124 3.6411 9.346 2.9691 9.346ZM19.8883 11.344H24.1183V13H17.8363V0.489999H19.8883V11.344ZM27.8864 0.489999V13H25.8344V0.489999H27.8864ZM40.8585 13H38.8065L32.6325 3.658V13H30.5805V0.471999H32.6325L38.8065 9.796V0.471999H40.8585V13ZM50.4471 13L45.6051 7.402V13H43.5531V0.489999H45.6051V6.196L50.4651 0.489999H53.0391L47.6031 6.754L53.1291 13H50.4471ZM56.9958 2.146V5.818H61.3158V7.492H56.9958V11.326H61.8558V13H54.9438V0.471999H61.8558V2.146H56.9958ZM68.4692 0.489999C69.8012 0.489999 70.9652 0.747999 71.9612 1.264C72.9692 1.768 73.7432 2.5 74.2832 3.46C74.8352 4.408 75.1112 5.518 75.1112 6.79C75.1112 8.062 74.8352 9.166 74.2832 10.102C73.7432 11.038 72.9692 11.758 71.9612 12.262C70.9652 12.754 69.8012 13 68.4692 13H64.3832V0.489999H68.4692ZM68.4692 11.326C69.9332 11.326 71.0552 10.93 71.8352 10.138C72.6152 9.346 73.0052 8.23 73.0052 6.79C73.0052 5.338 72.6152 4.204 71.8352 3.388C71.0552 2.572 69.9332 2.164 68.4692 2.164H66.4352V11.326H68.4692ZM79.1969 0.489999V13H77.1449V0.489999H79.1969ZM92.169 13H90.117L83.943 3.658V13H81.891V0.471999H83.943L90.117 9.796V0.471999H92.169V13Z" fill="#121212"/>
</svg>
