<svg width="135" height="23" viewBox="0 0 135 23" fill="none" xmlns="http://www.w3.org/2000/svg">
<path d="M5.30603 17.2064C4.31236 17.2064 3.41805 17.0306 2.6231 16.679C1.84345 16.3121 1.22431 15.8229 0.76569 15.2114C0.307069 14.5846 0.0624713 13.889 0.0318966 13.1247H2.73776C2.78362 13.6597 3.03586 14.1107 3.49448 14.4776C3.96839 14.8292 4.55695 15.005 5.26017 15.005C5.99397 15.005 6.5596 14.8674 6.95707 14.5922C7.36983 14.3018 7.57621 13.9349 7.57621 13.4916C7.57621 13.0176 7.3469 12.666 6.88828 12.4367C6.44494 12.2074 5.73408 11.9552 4.75569 11.68C3.80787 11.4201 3.03586 11.1679 2.43966 10.9233C1.84345 10.6787 1.32368 10.3041 0.880345 9.79966C0.452299 9.29517 0.238276 8.63017 0.238276 7.80465C0.238276 7.13201 0.437012 6.52052 0.834483 5.97017C1.23195 5.40454 1.79759 4.96121 2.53138 4.64017C3.28046 4.31914 4.13655 4.15862 5.09966 4.15862C6.53667 4.15862 7.69086 4.52552 8.56224 5.25931C9.44891 5.97782 9.92282 6.96385 9.98397 8.21741H7.36983C7.32397 7.65178 7.09466 7.2008 6.6819 6.86448C6.26914 6.52816 5.71115 6.36 5.00793 6.36C4.32 6.36 3.79259 6.48994 3.42569 6.74983C3.05879 7.00971 2.87535 7.35368 2.87535 7.78172C2.87535 8.11805 2.99764 8.40086 3.24224 8.63017C3.48684 8.85948 3.78494 9.04293 4.13655 9.18052C4.48816 9.30282 5.00793 9.46333 5.69586 9.66207C6.6131 9.90667 7.36218 10.1589 7.9431 10.4188C8.53931 10.6634 9.05144 11.0303 9.47948 11.5195C9.90753 12.0087 10.1292 12.6584 10.1445 13.4686C10.1445 14.1871 9.94575 14.8292 9.54828 15.3948C9.1508 15.9605 8.58517 16.4038 7.85138 16.7248C7.13287 17.0459 6.28443 17.2064 5.30603 17.2064ZM22.5084 4.365L14.7577 22.9391H12.0519L14.6202 16.7936L9.64412 4.365H12.5564L16.1107 13.996L19.8026 4.365H22.5084ZM21.7754 10.6252C21.7754 9.35632 22.0352 8.2327 22.555 7.25431C23.0901 6.27592 23.8086 5.51919 24.7105 4.98414C25.6278 4.43379 26.6444 4.15862 27.7604 4.15862C28.5859 4.15862 29.3961 4.34207 30.191 4.70897C31.0013 5.06057 31.6433 5.53448 32.1173 6.13069V0.0310346H34.7543V17H32.1173V15.0967C31.6892 15.7082 31.093 16.2127 30.3286 16.6102C29.5796 17.0076 28.7158 17.2064 27.7374 17.2064C26.6367 17.2064 25.6278 16.9312 24.7105 16.3809C23.8086 15.8152 23.0901 15.0356 22.555 14.0419C22.0352 13.0329 21.7754 11.894 21.7754 10.6252ZM32.1173 10.671C32.1173 9.79966 31.9338 9.04293 31.5669 8.40086C31.2153 7.75879 30.749 7.2696 30.1681 6.93328C29.5872 6.59695 28.9604 6.42879 28.2878 6.42879C27.6151 6.42879 26.9883 6.59695 26.4074 6.93328C25.8265 7.25431 25.3526 7.73586 24.9857 8.37793C24.6341 9.00471 24.4583 9.75379 24.4583 10.6252C24.4583 11.4966 24.6341 12.2609 24.9857 12.9183C25.3526 13.5756 25.8265 14.0801 26.4074 14.4317C27.0036 14.768 27.6304 14.9362 28.2878 14.9362C28.9604 14.9362 29.5872 14.768 30.1681 14.4317C30.749 14.0954 31.2153 13.6062 31.5669 12.9641C31.9338 12.3068 32.1173 11.5424 32.1173 10.671ZM42.7282 4.15862C43.7219 4.15862 44.6086 4.365 45.3882 4.77776C46.1832 5.19052 46.8023 5.80201 47.2456 6.61224C47.689 7.42247 47.9106 8.40086 47.9106 9.54741V17H45.3194V9.93724C45.3194 8.80598 45.0366 7.94224 44.471 7.34603C43.9054 6.73454 43.1333 6.42879 42.155 6.42879C41.1766 6.42879 40.3969 6.73454 39.816 7.34603C39.2504 7.94224 38.9675 8.80598 38.9675 9.93724V17H36.3534V4.365H38.9675V5.80965C39.3956 5.28988 39.9383 4.88477 40.5956 4.59431C41.2683 4.30385 41.9791 4.15862 42.7282 4.15862ZM60.9908 10.3729C60.9908 10.8468 60.9603 11.2749 60.8991 11.6571H51.2451C51.3216 12.666 51.6961 13.4763 52.3688 14.0878C53.0414 14.6993 53.8669 15.005 54.8453 15.005C56.2517 15.005 57.2454 14.4164 57.8263 13.2393H60.6469C60.2647 14.4011 59.5691 15.3566 58.5601 16.1057C57.5665 16.8395 56.3282 17.2064 54.8453 17.2064C53.6376 17.2064 52.5522 16.9389 51.5891 16.4038C50.6413 15.8534 49.8922 15.0891 49.3419 14.1107C48.8068 13.117 48.5393 11.9705 48.5393 10.671C48.5393 9.37161 48.7992 8.2327 49.3189 7.25431C49.854 6.26063 50.5954 5.49626 51.5432 4.96121C52.5063 4.42615 53.607 4.15862 54.8453 4.15862C56.0377 4.15862 57.1002 4.41851 58.0327 4.93828C58.9653 5.45805 59.6914 6.19184 60.2112 7.13966C60.7309 8.07218 60.9908 9.14994 60.9908 10.3729ZM58.262 9.54741C58.2467 8.58431 57.9028 7.8123 57.2301 7.23138C56.5575 6.65046 55.7243 6.36 54.7307 6.36C53.8287 6.36 53.0567 6.65046 52.4146 7.23138C51.7726 7.79701 51.3904 8.56902 51.2681 9.54741H58.262ZM73.1027 4.365L65.352 22.9391H62.6462L65.2144 16.7936L60.2384 4.365H63.1506L66.705 13.996L70.3968 4.365H73.1027ZM79.9774 6.24534C80.4207 5.63385 81.0246 5.13701 81.7889 4.75483C82.5686 4.35736 83.4323 4.15862 84.3801 4.15862C85.4961 4.15862 86.5051 4.42615 87.407 4.96121C88.309 5.49626 89.0198 6.26063 89.5396 7.25431C90.0594 8.2327 90.3193 9.35632 90.3193 10.6252C90.3193 11.894 90.0594 13.0329 89.5396 14.0419C89.0198 15.0356 88.3013 15.8152 87.3841 16.3809C86.4821 16.9312 85.4808 17.2064 84.3801 17.2064C83.4017 17.2064 82.5304 17.0153 81.766 16.6331C81.0169 16.2509 80.4207 15.7617 79.9774 15.1655V17H77.3632V0.0310346H79.9774V6.24534ZM87.6593 10.6252C87.6593 9.75379 87.4758 9.00471 87.1089 8.37793C86.7573 7.73586 86.2834 7.25431 85.6872 6.93328C85.1063 6.59695 84.4795 6.42879 83.8069 6.42879C83.1495 6.42879 82.5227 6.59695 81.9265 6.93328C81.3456 7.2696 80.8717 7.75879 80.5048 8.40086C80.1532 9.04293 79.9774 9.79966 79.9774 10.671C79.9774 11.5424 80.1532 12.3068 80.5048 12.9641C80.8717 13.6062 81.3456 14.0954 81.9265 14.4317C82.5227 14.768 83.1495 14.9362 83.8069 14.9362C84.4795 14.9362 85.1063 14.768 85.6872 14.4317C86.2834 14.0801 86.7573 13.5756 87.1089 12.9183C87.4758 12.2609 87.6593 11.4966 87.6593 10.6252ZM93.684 6.19948C94.0662 5.55741 94.5707 5.06057 95.1975 4.70897C95.8396 4.34207 96.5963 4.15862 97.4677 4.15862V6.86448H96.8027C95.7784 6.86448 94.9987 7.12437 94.4637 7.64414C93.9439 8.16391 93.684 9.06586 93.684 10.35V17H91.0699V4.365H93.684V6.19948ZM109.479 4.365V17H106.865V15.5095C106.452 16.0293 105.909 16.442 105.236 16.7478C104.579 17.0382 103.876 17.1834 103.127 17.1834C102.133 17.1834 101.239 16.9771 100.444 16.5643C99.6642 16.1516 99.0451 15.5401 98.5864 14.7298C98.1431 13.9196 97.9214 12.9412 97.9214 11.7947V4.365H100.513V11.4048C100.513 12.5361 100.795 13.4075 101.361 14.019C101.927 14.6152 102.699 14.9133 103.677 14.9133C104.656 14.9133 105.428 14.6152 105.993 14.019C106.574 13.4075 106.865 12.5361 106.865 11.4048V4.365H109.479ZM110.222 10.671C110.222 9.37161 110.482 8.2327 111.002 7.25431C111.537 6.26063 112.27 5.49626 113.203 4.96121C114.136 4.42615 115.206 4.15862 116.413 4.15862C117.942 4.15862 119.203 4.52552 120.197 5.25931C121.206 5.97782 121.886 7.00971 122.238 8.355H119.417C119.188 7.72822 118.821 7.23902 118.317 6.88741C117.812 6.5358 117.178 6.36 116.413 6.36C115.343 6.36 114.487 6.74218 113.845 7.50655C113.218 8.25563 112.905 9.31046 112.905 10.671C112.905 12.0316 113.218 13.0941 113.845 13.8584C114.487 14.6228 115.343 15.005 116.413 15.005C117.927 15.005 118.928 14.34 119.417 13.01H122.238C121.871 14.2941 121.183 15.3184 120.174 16.0828C119.165 16.8318 117.912 17.2064 116.413 17.2064C115.206 17.2064 114.136 16.9389 113.203 16.4038C112.27 15.8534 111.537 15.0891 111.002 14.1107C110.482 13.117 110.222 11.9705 110.222 10.671ZM134.589 10.3729C134.589 10.8468 134.558 11.2749 134.497 11.6571H124.843C124.919 12.666 125.294 13.4763 125.967 14.0878C126.639 14.6993 127.465 15.005 128.443 15.005C129.85 15.005 130.843 14.4164 131.424 13.2393H134.245C133.863 14.4011 133.167 15.3566 132.158 16.1057C131.164 16.8395 129.926 17.2064 128.443 17.2064C127.235 17.2064 126.15 16.9389 125.187 16.4038C124.239 15.8534 123.49 15.0891 122.94 14.1107C122.405 13.117 122.137 11.9705 122.137 10.671C122.137 9.37161 122.397 8.2327 122.917 7.25431C123.452 6.26063 124.193 5.49626 125.141 4.96121C126.104 4.42615 127.205 4.15862 128.443 4.15862C129.636 4.15862 130.698 4.41851 131.631 4.93828C132.563 5.45805 133.289 6.19184 133.809 7.13966C134.329 8.07218 134.589 9.14994 134.589 10.3729ZM131.86 9.54741C131.845 8.58431 131.501 7.8123 130.828 7.23138C130.155 6.65046 129.322 6.36 128.329 6.36C127.427 6.36 126.655 6.65046 126.012 7.23138C125.37 7.79701 124.988 8.56902 124.866 9.54741H131.86Z" fill="black"/>
</svg>
